<svg width="53" height="52" viewBox="0 0 53 52" fill="none" xmlns="http://www.w3.org/2000/svg">
<rect x="0.5" width="52" height="52" rx="4" fill="#4CAF50"/>
<path d="M33.25 17H31V16.25C31 16.0511 30.921 15.8603 30.7803 15.7197C30.6397 15.579 30.4489 15.5 30.25 15.5H22.75C22.5511 15.5 22.3603 15.579 22.2197 15.7197C22.079 15.8603 22 16.0511 22 16.25V17H19.75C19.3523 17.0005 18.971 17.1586 18.6898 17.4398C18.4086 17.721 18.2505 18.1023 18.25 18.5V34.25C18.2505 34.6477 18.4086 35.029 18.6898 35.3102C18.971 35.5914 19.3523 35.7495 19.75 35.75H33.25C33.6477 35.7495 34.029 35.5914 34.3102 35.3102C34.5914 35.029 34.7495 34.6477 34.75 34.25V18.5C34.7495 18.1023 34.5914 17.721 34.3102 17.4398C34.029 17.1586 33.6477 17.0005 33.25 17V17ZM23.5 17H29.5V19.25H23.5V17ZM29.5 29H23.5C23.3011 29 23.1103 28.921 22.9697 28.7803C22.829 28.6397 22.75 28.4489 22.75 28.25C22.75 28.0511 22.829 27.8603 22.9697 27.7197C23.1103 27.579 23.3011 27.5 23.5 27.5H29.5C29.6989 27.5 29.8897 27.579 30.0303 27.7197C30.171 27.8603 30.25 28.0511 30.25 28.25C30.25 28.4489 30.171 28.6397 30.0303 28.7803C29.8897 28.921 29.6989 29 29.5 29ZM29.5 26H23.5C23.3011 26 23.1103 25.921 22.9697 25.7803C22.829 25.6397 22.75 25.4489 22.75 25.25C22.75 25.0511 22.829 24.8603 22.9697 24.7197C23.1103 24.579 23.3011 24.5 23.5 24.5H29.5C29.6989 24.5 29.8897 24.579 30.0303 24.7197C30.171 24.8603 30.25 25.0511 30.25 25.25C30.25 25.4489 30.171 25.6397 30.0303 25.7803C29.8897 25.921 29.6989 26 29.5 26Z" fill="white"/>
</svg>
