<svg width="20" height="20" viewBox="0 0 20 20" fill="none" xmlns="http://www.w3.org/2000/svg">
<g clip-path="url(#clip0_364_3)">
<path d="M7.1607 6.84623L9.37501 4.63188V11.8753C9.37501 12.0411 9.44086 12.2 9.55807 12.3172C9.67528 12.4344 9.83425 12.5003 10 12.5003C10.1658 12.5003 10.3247 12.4344 10.442 12.3172C10.5592 12.2 10.625 12.0411 10.625 11.8753V4.63188L12.8393 6.84623C12.8974 6.90426 12.9663 6.9503 13.0421 6.98171C13.1179 7.01311 13.1992 7.02928 13.2813 7.02927C13.3634 7.02927 13.4446 7.0131 13.5205 6.98169C13.5963 6.95027 13.6652 6.90423 13.7232 6.84619C13.7813 6.78815 13.8273 6.71925 13.8587 6.64342C13.8901 6.56758 13.9063 6.48631 13.9063 6.40423C13.9063 6.32215 13.8901 6.24088 13.8587 6.16505C13.8273 6.08922 13.7812 6.02032 13.7232 5.96229L10.4419 2.68104C10.3247 2.56387 10.1658 2.49805 10 2.49805C9.83427 2.49805 9.67531 2.56387 9.55808 2.68104L6.27683 5.96229C6.21879 6.02032 6.17275 6.08922 6.14134 6.16505C6.10992 6.24088 6.09375 6.32215 6.09375 6.40423C6.09375 6.48631 6.10991 6.56758 6.14132 6.64342C6.17272 6.71925 6.21876 6.78815 6.27679 6.84619C6.33483 6.90423 6.40373 6.95027 6.47956 6.98169C6.55539 7.0131 6.63666 7.02927 6.71874 7.02927C6.80082 7.02928 6.88209 7.01311 6.95792 6.98171C7.03375 6.9503 7.10266 6.90426 7.1607 6.84623V6.84623Z" fill="black" fill-opacity="0.56"/>
<path d="M17.5 10C17.3342 10 17.1753 10.0659 17.0581 10.1831C16.9409 10.3003 16.875 10.4592 16.875 10.625V16.25H3.125V10.625C3.125 10.4592 3.05915 10.3003 2.94194 10.1831C2.82473 10.0658 2.66576 10 2.5 10C2.33424 10 2.17527 10.0658 2.05806 10.1831C1.94085 10.3003 1.875 10.4592 1.875 10.625V16.25C1.87538 16.5814 2.0072 16.8991 2.24154 17.1335C2.47587 17.3678 2.7936 17.4996 3.125 17.5H16.875C17.2064 17.4996 17.5241 17.3678 17.7585 17.1335C17.9928 16.8991 18.1246 16.5814 18.125 16.25V10.625C18.125 10.4592 18.0591 10.3003 17.9419 10.1831C17.8247 10.0659 17.6658 10 17.5 10V10Z" fill="black" fill-opacity="0.56"/>
</g>
<defs>
<clipPath id="clip0_364_3">
<rect width="20" height="20" fill="white"/>
</clipPath>
</defs>
</svg>
