<svg width="20" height="20" viewBox="0 0 20 20" fill="none" xmlns="http://www.w3.org/2000/svg">
<path d="M9.55808 12.3173C9.6753 12.4345 9.83426 12.5003 10 12.5003C10.1658 12.5003 10.3247 12.4345 10.4419 12.3173L13.7232 9.03606C13.7812 8.97802 13.8273 8.90912 13.8587 8.83329C13.8901 8.75746 13.9063 8.67619 13.9063 8.59411C13.9063 8.51204 13.8901 8.43076 13.8587 8.35493C13.8273 8.2791 13.7813 8.21019 13.7232 8.15215C13.6652 8.09411 13.5963 8.04807 13.5205 8.01666C13.4446 7.98525 13.3634 7.96907 13.2813 7.96907C13.1992 7.96907 13.1179 7.98523 13.0421 8.01664C12.9663 8.04804 12.8974 8.09408 12.8393 8.15211L10.625 10.3665V3.12305C10.625 2.95729 10.5592 2.79832 10.442 2.68111C10.3247 2.5639 10.1658 2.49805 10 2.49805C9.83425 2.49805 9.67528 2.5639 9.55807 2.68111C9.44086 2.79832 9.37501 2.95729 9.37501 3.12305V10.3665L7.1607 8.15211C7.10266 8.09408 7.03375 8.04804 6.95792 8.01664C6.88209 7.98523 6.80082 7.96907 6.71874 7.96907C6.55297 7.96908 6.394 8.03493 6.27679 8.15215C6.15959 8.26937 6.09374 8.42835 6.09375 8.59411C6.09376 8.75988 6.15961 8.91885 6.27683 9.03606L9.55808 12.3173Z" fill="black" fill-opacity="0.56"/>
<path d="M17.5 10C17.3342 10 17.1753 10.0659 17.0581 10.1831C16.9409 10.3003 16.875 10.4592 16.875 10.625V16.25H3.125V10.625C3.125 10.4592 3.05915 10.3003 2.94194 10.1831C2.82473 10.0658 2.66576 10 2.5 10C2.33424 10 2.17527 10.0658 2.05806 10.1831C1.94085 10.3003 1.875 10.4592 1.875 10.625V16.25C1.87538 16.5814 2.0072 16.8991 2.24154 17.1335C2.47587 17.3678 2.7936 17.4996 3.125 17.5H16.875C17.2064 17.4996 17.5241 17.3678 17.7585 17.1335C17.9928 16.8991 18.1246 16.5814 18.125 16.25V10.625C18.125 10.4592 18.0591 10.3003 17.9419 10.1831C17.8247 10.0659 17.6658 10 17.5 10V10Z" fill="black" fill-opacity="0.56"/>
</svg>
