<svg width="20" height="20" viewBox="0 0 20 20" fill="none" xmlns="http://www.w3.org/2000/svg">
<path d="M16.875 4.37695L3.125 4.37696" stroke="black" stroke-opacity="0.56" stroke-width="1.5" stroke-linecap="round" stroke-linejoin="round"/>
<path d="M8.125 8.12695V13.127" stroke="black" stroke-opacity="0.56" stroke-width="1.5" stroke-linecap="round" stroke-linejoin="round"/>
<path d="M11.875 8.12695V13.127" stroke="black" stroke-opacity="0.56" stroke-width="1.5" stroke-linecap="round" stroke-linejoin="round"/>
<path d="M15.625 4.37696V16.252C15.625 16.4177 15.5592 16.5767 15.4419 16.6939C15.3247 16.8111 15.1658 16.877 15 16.877H5C4.83424 16.877 4.67527 16.8111 4.55806 16.6939C4.44085 16.5767 4.375 16.4177 4.375 16.252V4.37695" stroke="black" stroke-opacity="0.56" stroke-width="1.5" stroke-linecap="round" stroke-linejoin="round"/>
<path d="M13.125 4.37695V3.12695C13.125 2.79543 12.9933 2.47749 12.7589 2.24307C12.5245 2.00865 12.2065 1.87695 11.875 1.87695H8.125C7.79348 1.87695 7.47554 2.00865 7.24112 2.24307C7.0067 2.47749 6.875 2.79543 6.875 3.12695V4.37695" stroke="black" stroke-opacity="0.56" stroke-width="1.5" stroke-linecap="round" stroke-linejoin="round"/>
</svg>
